<svg xmlns="http://www.w3.org/2000/svg" width="28.238" height="28.238" viewBox="0 0 28.238 28.238">
  <g id="Group_2549" data-name="Group 2549" transform="translate(-252.789 -399.472)">
    <path id="Stroke_1" data-name="Stroke 1" d="M0,14.119C0,24.708,3.531,28.238,14.119,28.238s14.119-3.531,14.119-14.119S24.708,0,14.119,0,0,3.531,0,14.119Z" transform="translate(281.027 399.472) rotate(90)" fill="#2d2c2c"/>
    <g id="Group_1661" data-name="Group 1661" transform="translate(243.455 403.263)">
      <g id="number_of_photo_zoom_in" data-name="number of photo/zoom in" transform="translate(15.312 2.313)">
        <g id="Group_243" data-name="Group 243">
          <path id="Stroke_5" data-name="Stroke 5" d="M0,0V1.9A2.4,2.4,0,0,0,2.4,4.3H4.509" transform="translate(0 12.139)" fill="none" stroke="#f5f6fa" stroke-linecap="round" stroke-linejoin="round" stroke-miterlimit="10" stroke-width="1.5"/>
          <path id="Stroke_5-2" data-name="Stroke 5" d="M0,4.3V2.4A2.4,2.4,0,0,1,2.4,0H4.509" fill="none" stroke="#f5f6fa" stroke-linecap="round" stroke-linejoin="round" stroke-miterlimit="10" stroke-width="1.5"/>
          <path id="Stroke_5-3" data-name="Stroke 5" d="M4.509,4.3V2.4A2.4,2.4,0,0,0,2.107,0H0" transform="translate(12.139)" fill="none" stroke="#f5f6fa" stroke-linecap="round" stroke-linejoin="round" stroke-miterlimit="10" stroke-width="1.5"/>
          <path id="Stroke_5-4" data-name="Stroke 5" d="M4.509,0V1.9a2.4,2.4,0,0,1-2.4,2.4H0" transform="translate(12.139 12.139)" fill="none" stroke="#f5f6fa" stroke-linecap="round" stroke-linejoin="round" stroke-miterlimit="10" stroke-width="1.5"/>
        </g>
      </g>
    </g>
  </g>
</svg>
